<mxfile host="app.diagrams.net" modified="2023-07-19T15:15:11.837Z" agent="Mozilla/5.0 (Windows NT 10.0; Win64; x64) AppleWebKit/537.36 (KHTML, like Gecko) Chrome/114.0.0.0 Safari/537.36" version="21.6.3" etag="IYseU1wLywuINScPEts_" type="device">
  <diagram id="idilsZUVOry7nmYEuPJ6" name="Page-1">
    <mxGraphModel dx="1102" dy="610" grid="1" gridSize="10" guides="1" tooltips="1" connect="1" arrows="1" fold="1" page="1" pageScale="1" pageWidth="827" pageHeight="1169" math="0" shadow="0">
      <root>
        <mxCell id="0" />
        <mxCell id="1" parent="0" />
        <mxCell id="QBnyMhsYryyhyBxMuzwj-1" value="User" style="swimlane;fontStyle=0;childLayout=stackLayout;horizontal=1;startSize=30;horizontalStack=0;resizeParent=1;resizeParentMax=0;resizeLast=0;collapsible=1;marginBottom=0;whiteSpace=wrap;html=1;" vertex="1" parent="1">
          <mxGeometry x="344" y="450" width="140" height="150" as="geometry" />
        </mxCell>
        <mxCell id="QBnyMhsYryyhyBxMuzwj-2" value="id : int" style="text;strokeColor=none;fillColor=none;align=left;verticalAlign=middle;spacingLeft=4;spacingRight=4;overflow=hidden;points=[[0,0.5],[1,0.5]];portConstraint=eastwest;rotatable=0;whiteSpace=wrap;html=1;" vertex="1" parent="QBnyMhsYryyhyBxMuzwj-1">
          <mxGeometry y="30" width="140" height="30" as="geometry" />
        </mxCell>
        <mxCell id="QBnyMhsYryyhyBxMuzwj-3" value="username: varchar" style="text;strokeColor=none;fillColor=none;align=left;verticalAlign=middle;spacingLeft=4;spacingRight=4;overflow=hidden;points=[[0,0.5],[1,0.5]];portConstraint=eastwest;rotatable=0;whiteSpace=wrap;html=1;" vertex="1" parent="QBnyMhsYryyhyBxMuzwj-1">
          <mxGeometry y="60" width="140" height="30" as="geometry" />
        </mxCell>
        <mxCell id="QBnyMhsYryyhyBxMuzwj-4" value="email: varchar" style="text;strokeColor=none;fillColor=none;align=left;verticalAlign=middle;spacingLeft=4;spacingRight=4;overflow=hidden;points=[[0,0.5],[1,0.5]];portConstraint=eastwest;rotatable=0;whiteSpace=wrap;html=1;" vertex="1" parent="QBnyMhsYryyhyBxMuzwj-1">
          <mxGeometry y="90" width="140" height="30" as="geometry" />
        </mxCell>
        <mxCell id="QBnyMhsYryyhyBxMuzwj-5" value="password: varchar" style="text;strokeColor=none;fillColor=none;align=left;verticalAlign=middle;spacingLeft=4;spacingRight=4;overflow=hidden;points=[[0,0.5],[1,0.5]];portConstraint=eastwest;rotatable=0;whiteSpace=wrap;html=1;" vertex="1" parent="QBnyMhsYryyhyBxMuzwj-1">
          <mxGeometry y="120" width="140" height="30" as="geometry" />
        </mxCell>
        <mxCell id="QBnyMhsYryyhyBxMuzwj-6" value="Comment" style="swimlane;fontStyle=0;childLayout=stackLayout;horizontal=1;startSize=30;horizontalStack=0;resizeParent=1;resizeParentMax=0;resizeLast=0;collapsible=1;marginBottom=0;whiteSpace=wrap;html=1;" vertex="1" parent="1">
          <mxGeometry x="120" y="310" width="140" height="210" as="geometry" />
        </mxCell>
        <mxCell id="QBnyMhsYryyhyBxMuzwj-7" value="id : int" style="text;strokeColor=none;fillColor=none;align=left;verticalAlign=middle;spacingLeft=4;spacingRight=4;overflow=hidden;points=[[0,0.5],[1,0.5]];portConstraint=eastwest;rotatable=0;whiteSpace=wrap;html=1;" vertex="1" parent="QBnyMhsYryyhyBxMuzwj-6">
          <mxGeometry y="30" width="140" height="30" as="geometry" />
        </mxCell>
        <mxCell id="QBnyMhsYryyhyBxMuzwj-8" value="text : longtext" style="text;strokeColor=none;fillColor=none;align=left;verticalAlign=middle;spacingLeft=4;spacingRight=4;overflow=hidden;points=[[0,0.5],[1,0.5]];portConstraint=eastwest;rotatable=0;whiteSpace=wrap;html=1;" vertex="1" parent="QBnyMhsYryyhyBxMuzwj-6">
          <mxGeometry y="60" width="140" height="30" as="geometry" />
        </mxCell>
        <mxCell id="QBnyMhsYryyhyBxMuzwj-9" value="timestamp : datetime" style="text;strokeColor=none;fillColor=none;align=left;verticalAlign=middle;spacingLeft=4;spacingRight=4;overflow=hidden;points=[[0,0.5],[1,0.5]];portConstraint=eastwest;rotatable=0;whiteSpace=wrap;html=1;" vertex="1" parent="QBnyMhsYryyhyBxMuzwj-6">
          <mxGeometry y="90" width="140" height="30" as="geometry" />
        </mxCell>
        <mxCell id="QBnyMhsYryyhyBxMuzwj-26" style="edgeStyle=orthogonalEdgeStyle;rounded=0;orthogonalLoop=1;jettySize=auto;html=1;entryX=0;entryY=0.08;entryDx=0;entryDy=0;entryPerimeter=0;" edge="1" parent="QBnyMhsYryyhyBxMuzwj-6" source="QBnyMhsYryyhyBxMuzwj-10" target="QBnyMhsYryyhyBxMuzwj-6">
          <mxGeometry relative="1" as="geometry" />
        </mxCell>
        <mxCell id="QBnyMhsYryyhyBxMuzwj-10" value="parent_id : int" style="text;strokeColor=none;fillColor=none;align=left;verticalAlign=middle;spacingLeft=4;spacingRight=4;overflow=hidden;points=[[0,0.5],[1,0.5]];portConstraint=eastwest;rotatable=0;whiteSpace=wrap;html=1;" vertex="1" parent="QBnyMhsYryyhyBxMuzwj-6">
          <mxGeometry y="120" width="140" height="30" as="geometry" />
        </mxCell>
        <mxCell id="QBnyMhsYryyhyBxMuzwj-27" style="edgeStyle=orthogonalEdgeStyle;rounded=0;orthogonalLoop=1;jettySize=auto;html=1;entryX=0;entryY=0.085;entryDx=0;entryDy=0;entryPerimeter=0;" edge="1" parent="QBnyMhsYryyhyBxMuzwj-6" source="QBnyMhsYryyhyBxMuzwj-11" target="QBnyMhsYryyhyBxMuzwj-6">
          <mxGeometry relative="1" as="geometry" />
        </mxCell>
        <mxCell id="QBnyMhsYryyhyBxMuzwj-28" value="user_creator_id : int" style="text;strokeColor=none;fillColor=none;align=left;verticalAlign=middle;spacingLeft=4;spacingRight=4;overflow=hidden;points=[[0,0.5],[1,0.5]];portConstraint=eastwest;rotatable=0;whiteSpace=wrap;html=1;" vertex="1" parent="QBnyMhsYryyhyBxMuzwj-6">
          <mxGeometry y="150" width="140" height="30" as="geometry" />
        </mxCell>
        <mxCell id="QBnyMhsYryyhyBxMuzwj-11" value="main_parent_id : int" style="text;strokeColor=none;fillColor=none;align=left;verticalAlign=middle;spacingLeft=4;spacingRight=4;overflow=hidden;points=[[0,0.5],[1,0.5]];portConstraint=eastwest;rotatable=0;whiteSpace=wrap;html=1;" vertex="1" parent="QBnyMhsYryyhyBxMuzwj-6">
          <mxGeometry y="180" width="140" height="30" as="geometry" />
        </mxCell>
        <mxCell id="QBnyMhsYryyhyBxMuzwj-12" value="AttachedFile" style="swimlane;fontStyle=0;childLayout=stackLayout;horizontal=1;startSize=30;horizontalStack=0;resizeParent=1;resizeParentMax=0;resizeLast=0;collapsible=1;marginBottom=0;whiteSpace=wrap;html=1;" vertex="1" parent="1">
          <mxGeometry x="570" y="320" width="146" height="180" as="geometry" />
        </mxCell>
        <mxCell id="QBnyMhsYryyhyBxMuzwj-13" value="id : int" style="text;strokeColor=none;fillColor=none;align=left;verticalAlign=middle;spacingLeft=4;spacingRight=4;overflow=hidden;points=[[0,0.5],[1,0.5]];portConstraint=eastwest;rotatable=0;whiteSpace=wrap;html=1;" vertex="1" parent="QBnyMhsYryyhyBxMuzwj-12">
          <mxGeometry y="30" width="146" height="30" as="geometry" />
        </mxCell>
        <mxCell id="QBnyMhsYryyhyBxMuzwj-14" value="name : varchar" style="text;strokeColor=none;fillColor=none;align=left;verticalAlign=middle;spacingLeft=4;spacingRight=4;overflow=hidden;points=[[0,0.5],[1,0.5]];portConstraint=eastwest;rotatable=0;whiteSpace=wrap;html=1;" vertex="1" parent="QBnyMhsYryyhyBxMuzwj-12">
          <mxGeometry y="60" width="146" height="30" as="geometry" />
        </mxCell>
        <mxCell id="QBnyMhsYryyhyBxMuzwj-15" value="image_src : varchar" style="text;strokeColor=none;fillColor=none;align=left;verticalAlign=middle;spacingLeft=4;spacingRight=4;overflow=hidden;points=[[0,0.5],[1,0.5]];portConstraint=eastwest;rotatable=0;whiteSpace=wrap;html=1;" vertex="1" parent="QBnyMhsYryyhyBxMuzwj-12">
          <mxGeometry y="90" width="146" height="30" as="geometry" />
        </mxCell>
        <mxCell id="QBnyMhsYryyhyBxMuzwj-16" value="image_mini_src : varchar" style="text;strokeColor=none;fillColor=none;align=left;verticalAlign=middle;spacingLeft=4;spacingRight=4;overflow=hidden;points=[[0,0.5],[1,0.5]];portConstraint=eastwest;rotatable=0;whiteSpace=wrap;html=1;" vertex="1" parent="QBnyMhsYryyhyBxMuzwj-12">
          <mxGeometry y="120" width="146" height="30" as="geometry" />
        </mxCell>
        <mxCell id="QBnyMhsYryyhyBxMuzwj-17" value="file_src : varchar" style="text;strokeColor=none;fillColor=none;align=left;verticalAlign=middle;spacingLeft=4;spacingRight=4;overflow=hidden;points=[[0,0.5],[1,0.5]];portConstraint=eastwest;rotatable=0;whiteSpace=wrap;html=1;" vertex="1" parent="QBnyMhsYryyhyBxMuzwj-12">
          <mxGeometry y="150" width="146" height="30" as="geometry" />
        </mxCell>
        <mxCell id="QBnyMhsYryyhyBxMuzwj-18" value="Comment_Files" style="swimlane;fontStyle=0;childLayout=stackLayout;horizontal=1;startSize=30;horizontalStack=0;resizeParent=1;resizeParentMax=0;resizeLast=0;collapsible=1;marginBottom=0;whiteSpace=wrap;html=1;" vertex="1" parent="1">
          <mxGeometry x="344" y="290" width="140" height="120" as="geometry" />
        </mxCell>
        <mxCell id="QBnyMhsYryyhyBxMuzwj-19" value="id : int" style="text;strokeColor=none;fillColor=none;align=left;verticalAlign=middle;spacingLeft=4;spacingRight=4;overflow=hidden;points=[[0,0.5],[1,0.5]];portConstraint=eastwest;rotatable=0;whiteSpace=wrap;html=1;" vertex="1" parent="QBnyMhsYryyhyBxMuzwj-18">
          <mxGeometry y="30" width="140" height="30" as="geometry" />
        </mxCell>
        <mxCell id="QBnyMhsYryyhyBxMuzwj-20" value="comment_id : int" style="text;strokeColor=none;fillColor=none;align=left;verticalAlign=middle;spacingLeft=4;spacingRight=4;overflow=hidden;points=[[0,0.5],[1,0.5]];portConstraint=eastwest;rotatable=0;whiteSpace=wrap;html=1;" vertex="1" parent="QBnyMhsYryyhyBxMuzwj-18">
          <mxGeometry y="60" width="140" height="30" as="geometry" />
        </mxCell>
        <mxCell id="QBnyMhsYryyhyBxMuzwj-21" value="attachedfile_id : int" style="text;strokeColor=none;fillColor=none;align=left;verticalAlign=middle;spacingLeft=4;spacingRight=4;overflow=hidden;points=[[0,0.5],[1,0.5]];portConstraint=eastwest;rotatable=0;whiteSpace=wrap;html=1;" vertex="1" parent="QBnyMhsYryyhyBxMuzwj-18">
          <mxGeometry y="90" width="140" height="30" as="geometry" />
        </mxCell>
        <mxCell id="QBnyMhsYryyhyBxMuzwj-29" style="edgeStyle=orthogonalEdgeStyle;rounded=0;orthogonalLoop=1;jettySize=auto;html=1;entryX=1;entryY=0.5;entryDx=0;entryDy=0;" edge="1" parent="1" source="QBnyMhsYryyhyBxMuzwj-13" target="QBnyMhsYryyhyBxMuzwj-21">
          <mxGeometry relative="1" as="geometry" />
        </mxCell>
        <mxCell id="QBnyMhsYryyhyBxMuzwj-30" style="edgeStyle=orthogonalEdgeStyle;rounded=0;orthogonalLoop=1;jettySize=auto;html=1;entryX=0;entryY=0.5;entryDx=0;entryDy=0;" edge="1" parent="1" source="QBnyMhsYryyhyBxMuzwj-7" target="QBnyMhsYryyhyBxMuzwj-20">
          <mxGeometry relative="1" as="geometry" />
        </mxCell>
        <mxCell id="QBnyMhsYryyhyBxMuzwj-31" style="edgeStyle=orthogonalEdgeStyle;rounded=0;orthogonalLoop=1;jettySize=auto;html=1;entryX=0;entryY=0.5;entryDx=0;entryDy=0;" edge="1" parent="1" source="QBnyMhsYryyhyBxMuzwj-28" target="QBnyMhsYryyhyBxMuzwj-2">
          <mxGeometry relative="1" as="geometry" />
        </mxCell>
      </root>
    </mxGraphModel>
  </diagram>
</mxfile>
